Coordinates
version=1
nRows=11
nColumns=40
inDegrees=yes

Units are S.I. units (second, meters, Newtons, ...)
Angles are in degrees.

endheader
time	pelvis_tilt	pelvis_list	pelvis_rotation	pelvis_tx	pelvis_ty	pelvis_tz	hip_flexion_r	hip_adduction_r	hip_rotation_r	knee_angle_r	knee_angle_r_beta	ankle_angle_r	subtalar_angle_r	mtp_angle_r	hip_flexion_l	hip_adduction_l	hip_rotation_l	knee_angle_l	knee_angle_l_beta	ankle_angle_l	subtalar_angle_l	mtp_angle_l	lumbar_extension	lumbar_bending	lumbar_rotation	arm_flex_r	arm_add_r	arm_rot_r	elbow_flex_r	pro_sup_r	wrist_flex_r	wrist_dev_r	arm_flex_l	arm_add_l	arm_rot_l	elbow_flex_l	pro_sup_l	wrist_flex_l	wrist_dev_l
     31.60000000	     -2.92563178	     -4.43936169	     -1.04868648	      0.99535044	      0.92223357	      0.59469262	     13.04945804	      6.33005202	    -10.37106857	     24.14667379	     24.14667379	     15.79641195	     -9.37967357	      0.71733348	     25.69006564	    -12.64402647	      0.50161950	     55.61608569	     55.61608569	     18.34662572	    -19.55521972	     22.80495258	    -11.24645166	      6.39767196	      0.49030239	     10.97746888	    -16.00413212	    -14.14772642	     40.77986579	     45.62879666	      0.00000000	      0.00000000	     17.88973561	     -8.82377441	     -5.77599251	     43.74352670	     45.68146763	      0.00000000	      0.00000000
     31.61885714	     -2.73086447	     -4.17855244	     -0.46380046	      0.99275647	      0.92102408	      0.59559929	     13.12582050	      6.04998860	    -10.47240385	     25.08329193	     25.08329193	     16.28015121	    -10.14719578	      0.47711913	     26.90334535	    -12.22466215	      0.59657822	     54.33154854	     54.33154854	     18.40397981	    -19.53884308	     22.58173677	    -11.50732576	      5.89138722	      0.31381266	     13.93775129	    -15.62625107	    -14.11781012	     42.83287027	     45.56812775	      0.00000000	      0.00000000	     15.50968581	     -8.38795707	     -5.49403911	     41.63713043	     45.62334613	      0.00000000	      0.00000000
     31.63771429	     -2.61718775	     -3.98260766	      0.22427944	      0.99010048	      0.91975984	      0.59650701	     13.21507428	      5.86448789	    -10.63381763	     25.87871491	     25.87871491	     16.69798698	    -11.08030504	      0.40160301	     28.11670073	    -11.77303431	      0.85003448	     52.76055894	     52.76055894	     18.24945294	    -19.53704678	     22.27314525	    -11.63204044	      5.50270598	     -0.32109493	     16.93095799	    -14.94070251	    -13.75654374	     45.69868990	     45.46182408	      0.00000000	      0.00000000	     13.24811248	     -8.14607955	     -5.18549206	     38.47689705	     45.56887807	      0.00000000	      0.00000000
     31.65657143	     -2.47994726	     -3.85985505	      0.85392440	      0.98740669	      0.91869165	      0.59742755	     13.19870306	      5.77196807	    -10.78433454	     26.53559494	     26.53559494	     17.18449066	    -11.77318959	      0.71868542	     29.14474597	    -11.39398016	      1.05326034	     50.95032205	     50.95032205	     17.78118976	    -19.51065359	     21.36075368	    -11.84600273	      5.18800729	      0.36338511	     18.44361956	    -15.59741940	    -11.93900887	     50.54076488	     45.23125696	      0.00000000	      0.00000000	     12.77173422	     -7.21783320	     -4.81615005	     32.45026884	     45.59702952	      0.00000000	      0.00000000
     31.67542857	     -2.41716435	     -3.70699702	      1.48160203	      0.98467022	      0.91764039	      0.59820787	     13.24129501	      5.61434870	    -11.02309277	     27.15179179	     27.15179179	     17.56140625	    -12.37073354	      0.65552631	     30.16431894	    -10.91144299	      1.33601726	     49.07984834	     49.07984834	     17.46179166	    -19.47787129	     21.27609069	    -12.00771155	      4.83729571	      0.05320751	     21.52535080	    -15.10262892	    -11.86120650	     53.19350443	     45.15416412	      0.00000000	      0.00000000	     10.45594798	     -7.01901691	     -4.65500390	     30.34534245	     45.55728833	      0.00000000	      0.00000000
     31.69428571	     -2.40779533	     -3.61254507	      2.09107802	      0.98199147	      0.91687273	      0.59887768	     13.21249892	      5.51670455	    -11.32834798	     27.52466776	     27.52466776	     17.86132192	    -12.77384667	      0.71444928	     31.07370896	    -10.45109829	      1.70259014	     47.04824470	     47.04824470	     16.90995332	    -19.42828757	     20.91406476	    -12.11060358	      4.57386589	     -0.15999805	     24.40411003	    -14.75971761	    -11.50284699	     56.17961444	     45.05553081	      0.00000000	      0.00000000	      8.39854945	     -6.82852309	     -4.45905556	     28.01059837	     45.51826302	      0.00000000	      0.00000000
     31.71314286	     -2.39674896	     -3.47731680	      2.62359473	      0.97937624	      0.91655176	      0.59937216	     13.10361023	      5.36290825	    -11.62239972	     27.76425590	     27.76425590	     18.07252121	    -12.96654705	      0.79574863	     31.76117587	     -9.92660389	      2.12086330	     44.85767244	     44.85767244	     16.13668415	    -19.35026677	     20.45909991	    -12.19884858	      4.29064533	     -0.21303155	     27.20471303	    -14.45394366	    -11.06349308	     59.25727130	     44.95142456	      0.00000000	      0.00000000	      6.38527598	     -6.73537637	     -4.27579465	     25.98446500	     45.47628945	      0.00000000	      0.00000000
     31.73200000	     -2.50128527	     -3.47745136	      3.12089797	      0.97692878	      0.91637617	      0.59975066	     12.96175357	      5.33746029	    -12.06096265	     27.72626853	     27.72626853	     18.39803991	    -12.88085117	      1.16308479	     32.39763901	     -9.60488969	      2.47735228	     42.53034289	     42.53034289	     14.83434040	    -19.24946269	     18.38953969	    -12.19580211	      4.15326169	      0.60478809	     28.84843865	    -15.43250239	     -9.85518554	     63.95972012	     44.79427514	      0.00000000	      0.00000000	      5.08300407	     -6.46167416	     -3.80118609	     23.89565500	     45.43316500	      0.00000000	      0.00000000
     31.75085714	     -2.73241413	     -3.48908260	      3.49081680	      0.97449264	      0.91644848	      0.59996086	     12.89554939	      5.33781574	    -12.35773183	     27.54461464	     27.54461464	     18.42323747	    -12.86355198	      1.18996223	     33.09953570	     -9.26167858	      3.00291355	     40.38132998	     40.38132998	     14.27236464	    -19.01058175	     18.63472226	    -11.92074063	      4.00175951	      1.41495526	     31.58554759	    -15.95739498	    -10.06222192	     65.38390983	     44.76888144	      0.00000000	      0.00000000	      3.27705020	     -6.33555018	     -3.78660630	     23.16297468	     45.40057013	      0.00000000	      0.00000000
     31.76971429	     -2.78841534	     -3.33435342	      3.91392330	      0.97243507	      0.91719621	      0.59979303	     12.44243202	      5.08322644	    -12.97136809	     27.11392146	     27.11392146	     18.54927548	    -12.21032437	      1.18004541	     33.23491199	     -8.78135144	      3.44645355	     37.85579045	     37.85579045	     12.59043786	    -18.85621815	     16.00390876	    -11.99944646	      3.79100365	      1.04336412	     33.83593313	    -15.55162343	     -8.86714516	     70.60726211	     44.60392114	      0.00000000	      0.00000000	      0.77116833	     -6.62611309	     -3.22967432	     23.09502990	     45.26761342	      0.00000000	      0.00000000
     31.78857143	     -2.91195440	     -3.25290675	      4.21731399	      0.97048292	      0.91820339	      0.59951740	     11.95701744	      4.98835516	    -13.33040722	     26.44927778	     26.44927778	     18.48206228	    -11.83323400	      1.25740824	     33.37246310	     -8.40048314	      3.98126133	     35.54312614	     35.54312614	     11.85535561	    -18.51526308	     15.88194219	    -11.85724634	      3.62589304	      1.24159206	     36.59444411	    -15.33111191	     -8.74616489	     72.85677306	     44.54670958	      0.00000000	      0.00000000	     -1.16693560	     -6.75041367	     -3.06102102	     22.50648647	     45.20454821	      0.00000000	      0.00000000
